<?xml version="1.0" encoding="UTF-8" standalone="no"?>
<!DOCTYPE svg PUBLIC "-//W3C//DTD SVG 1.1//EN" "http://www.w3.org/Graphics/SVG/1.1/DTD/svg11.dtd">
<svg xmlns="http://www.w3.org/2000/svg" version="1.1" viewBox="0 0 1448 1448" width="1448" height="1448">
<g stroke-width="2.00" fill="none" stroke-linecap="butt">
<path stroke="#f4ad64" vector-effect="non-scaling-stroke" d="
  M 1448.00 898.31
  L 1447.81 869.52
  A 0.81 0.81 0.0 0 0 1447.16 868.74
  Q 1446.12 868.54 1446.50 870.25
  Q 1446.72 871.23 1446.49 875.14
  Q 1446.41 876.64 1445.21 875.73
  Q 1444.73 875.36 1444.11 875.19
  A 0.64 0.64 0.0 0 0 1443.29 875.80
  Q 1443.29 876.27 1442.82 876.31
  A 1.07 0.15 -6.8 0 1 1441.94 876.29
  Q 1440.45 875.32 1438.97 876.15
  A 1.00 1.00 0.0 0 1 1438.14 876.21
  L 1433.87 874.64
  A 1.00 0.98 81.0 0 1 1433.41 874.30
  Q 1431.79 872.12 1430.20 874.32
  A 1.00 0.99 28.5 0 1 1429.02 874.66
  L 1427.82 874.18
  A 0.98 0.98 0.0 0 0 1426.77 874.38
  C 1425.29 875.76 1422.70 878.21 1421.32 875.04
  A 1.01 1.00 86.1 0 0 1420.68 874.48
  Q 1417.93 873.67 1415.06 874.10
  A 1.02 0.94 -33.3 0 1 1414.45 874.00
  Q 1412.60 873.03 1410.83 873.93
  A 0.97 0.96 -54.7 0 1 1410.26 874.03
  L 1406.77 873.61
  A 0.96 0.96 0.0 0 0 1406.12 873.75
  Q 1405.11 874.37 1403.99 873.73
  A 1.05 1.01 49.4 0 0 1403.17 873.65
  Q 1400.75 874.49 1398.43 873.47
  A 0.95 0.93 51.4 0 0 1397.85 873.40
  Q 1395.32 873.88 1392.96 872.80
  A 1.00 0.99 -46.6 0 0 1392.05 872.83
  Q 1389.67 874.17 1387.80 872.56
  A 1.02 1.01 51.8 0 0 1386.70 872.42
  Q 1382.17 874.67 1378.52 871.43
  A 1.01 1.00 43.9 0 0 1377.17 871.45
  Q 1374.23 874.21 1374.48 870.25
  Q 1374.50 870.04 1374.43 869.85
  Q 1373.32 866.73 1373.78 863.27
  Q 1373.83 862.89 1373.49 863.05
  L 1373.23 863.17
  A 0.33 0.33 0.0 0 1 1372.77 862.86
  Q 1372.90 852.90 1372.04 843.00"
/>
<path stroke="#8b6744" vector-effect="non-scaling-stroke" d="
  M 1372.04 843.00
  Q 1372.01 646.59 1372.13 450.19
  Q 1372.17 395.21 1368.15 349.82
  Q 1364.48 308.34 1353.15 268.28
  Q 1349.97 257.04 1346.73 249.30
  Q 1311.55 165.52 1233.67 118.87
  C 1194.50 95.40 1152.95 85.64 1107.25 80.77
  C 1074.15 77.24 1038.43 76.02 1001.50 76.01
  Q 719.91 75.96 438.31 76.19
  C 382.27 76.24 325.66 79.06 271.35 93.91
  Q 261.15 96.71 252.37 100.19
  C 184.77 127.05 130.78 179.82 102.36 246.91
  Q 97.90 257.45 95.33 266.32
  C 78.97 322.70 76.22 381.09 76.16 441.56
  Q 75.97 617.03 75.99 792.50"
/>
<path stroke="#f4ad64" vector-effect="non-scaling-stroke" d="
  M 75.99 792.50
  L 74.47 821.56
  A 0.48 0.43 68.8 0 1 74.37 821.82
  Q 74.20 822.01 74.09 821.90
  C 74.06 821.87 74.32 816.83 74.32 816.34
  C 74.34 813.15 72.63 810.72 69.16 812.11
  A 0.99 0.96 -42.7 0 1 68.36 812.09
  Q 66.97 811.43 65.65 811.88
  Q 63.28 812.68 62.52 810.72
  A 1.01 1.01 0.0 0 0 61.40 810.09
  C 59.01 810.55 57.25 812.17 55.01 809.98
  Q 53.89 808.89 50.93 810.61
  Q 49.49 811.45 48.02 810.61
  A 0.98 0.97 53.3 0 0 47.30 810.50
  C 43.00 811.46 41.66 813.12 37.23 810.57
  A 1.00 1.00 0.0 0 0 36.29 810.53
  Q 34.19 811.55 32.22 810.33
  A 0.98 0.98 0.0 0 0 31.30 810.26
  Q 29.19 811.19 26.78 810.14
  A 1.01 0.99 -48.1 0 0 25.86 810.20
  Q 24.19 811.21 22.72 810.66
  Q 22.55 810.60 22.37 810.59
  L 17.69 810.55
  A 0.64 0.63 19.6 0 0 17.20 810.78
  L 17.03 810.98
  A 0.66 0.65 -52.7 0 1 16.17 811.10
  Q 12.91 808.86 9.05 810.07
  A 1.02 1.00 56.8 0 1 8.08 809.86
  Q 5.95 807.96 3.45 809.13
  A 1.00 1.00 0.0 0 1 2.04 808.36
  L 1.90 807.42
  Q 1.75 806.38 1.39 807.36
  Q 1.29 807.66 1.28 808.00
  Q 1.17 825.38 0.93 808.01
  Q 0.93 807.83 0.90 808.01
  L 0.63 810.20
  Q 0.56 810.73 0.57 810.20
  Q 0.62 807.49 0.30 804.81
  Q 0.25 804.37 0.24 804.81
  L 0.00 836.44"
/>
<path stroke="#906d47" vector-effect="non-scaling-stroke" d="
  M 1372.04 843.00
  Q 1372.01 925.84 1371.94 1008.69
  Q 1371.92 1031.38 1370.54 1063.75"
/>
<path stroke="#937148" vector-effect="non-scaling-stroke" d="
  M 1370.54 1063.75
  C 1368.66 1103.97 1364.13 1141.51 1353.46 1178.99
  Q 1350.40 1189.74 1346.86 1198.34
  C 1318.42 1267.39 1262.86 1322.52 1192.69 1348.95
  Q 1184.01 1352.22 1173.63 1354.97
  C 1112.22 1371.29 1046.43 1372.18 982.74 1372.22
  C 798.68 1372.33 614.61 1372.49 430.56 1371.76
  C 379.26 1371.56 324.89 1368.31 274.20 1354.87
  C 201.18 1335.51 139.21 1279.26 107.13 1211.96
  Q 100.29 1197.61 96.91 1187.03
  C 81.55 1138.91 77.37 1084.64 76.46 1033.00"
/>
<path stroke="#906d47" vector-effect="non-scaling-stroke" d="
  M 76.46 1033.00
  C 75.99 952.83 76.00 872.67 75.99 792.50"
/>
<path stroke="#937148" vector-effect="non-scaling-stroke" d="
  M 663.54 289.75
  Q 662.38 290.50 661.43 290.68
  C 517.86 318.34 409.15 432.41 386.78 576.51
  C 383.98 594.55 383.36 612.85 382.69 631.07
  Q 378.50 743.26 374.12 855.45
  C 371.88 912.85 353.25 962.10 314.91 1005.74
  A 1.01 0.99 22.1 0 1 314.10 1006.07
  C 304.82 1005.56 294.62 1006.12 285.84 1009.36
  C 264.80 1017.11 248.92 1034.90 245.09 1057.35
  C 239.62 1089.44 261.44 1120.03 292.92 1127.24
  C 299.38 1128.72 308.86 1129.01 314.50 1129.01
  Q 460.80 1128.98 607.11 1129.00
  Q 607.24 1129.00 607.83 1128.82
  Q 608.03 1128.75 608.25 1128.79"
/>
<path stroke="#8b6744" vector-effect="non-scaling-stroke" d="
  M 608.25 1128.79
  Q 617.23 1156.44 637.50 1176.76
  C 703.05 1242.49 811.52 1216.25 841.75 1129.04"
/>
<path stroke="#937148" vector-effect="non-scaling-stroke" d="
  M 841.75 1129.04
  L 1057.50 1128.96"
/>
<path stroke="#8b6744" vector-effect="non-scaling-stroke" d="
  M 1057.50 1128.96
  Q 1096.59 1129.05 1135.69 1128.98
  Q 1149.36 1128.95 1155.60 1127.71
  C 1180.24 1122.82 1199.90 1103.17 1204.63 1078.51
  C 1210.25 1049.19 1193.39 1020.92 1166.43 1010.07
  C 1156.81 1006.20 1145.66 1005.11 1135.16 1005.21
  A 1.02 1.00 -20.3 0 1 1134.40 1004.87
  Q 1083.92 947.33 1076.76 871.71
  Q 1076.11 864.89 1075.71 851.75
  C 1074.55 813.88 1072.45 776.06 1071.26 738.20
  Q 1069.25 674.49 1066.39 610.80
  C 1062.81 531.13 1030.86 454.20 977.05 395.85
  Q 908.68 321.73 810.71 295.44
  C 803.42 293.49 794.82 291.84 787.06 290.03
  A 1.00 0.99 -81.5 0 1 786.29 288.99
  Q 788.40 257.72 768.80 236.98
  C 757.80 225.34 741.42 218.45 725.49 218.21
  C 699.50 217.82 676.42 234.69 667.37 258.46
  C 663.62 268.32 662.98 279.13 663.54 289.75"
/>
<path stroke="#f7b165" vector-effect="non-scaling-stroke" d="
  M 1057.50 1128.96
  Q 1056.71 1128.91 1055.98 1128.70
  Q 1053.45 1127.95 1055.84 1126.83
  Q 1057.33 1126.14 1058.89 1125.69
  Q 1062.47 1124.65 1063.38 1124.26
  C 1108.42 1104.90 1115.50 1045.03 1075.08 1016.66
  C 1069.39 1012.66 1065.97 1011.24 1058.59 1011.24
  Q 969.79 1011.26 880.98 1011.25
  C 871.02 1011.25 871.50 1000.27 879.31 1000.26
  Q 958.25 1000.24 1037.21 1000.25
  Q 1039.13 1000.25 1038.03 998.68
  Q 1028.62 985.15 1021.57 969.87
  C 1004.96 933.94 996.91 896.73 995.69 857.26
  Q 992.93 767.35 990.17 677.44
  Q 988.96 638.25 988.13 599.05
  C 986.88 540.12 976.20 481.87 950.02 428.94
  C 919.15 366.52 865.54 320.66 799.99 298.00
  C 782.51 291.95 761.05 286.41 741.77 285.25
  Q 703.04 282.91 664.75 290.00
  Q 664.36 290.07 663.54 289.75"
/>
<path stroke="#f7b165" vector-effect="non-scaling-stroke" d="
  M 841.75 1129.04
  C 839.50 1128.13 837.52 1128.75 835.67 1128.75
  Q 721.96 1128.72 608.25 1128.79"
/>
<path stroke="#ffc47f" vector-effect="non-scaling-stroke" d="
  M 547.52 443.08
  C 568.27 435.21 627.04 401.62 616.94 373.11
  C 609.56 352.28 579.55 353.45 562.95 359.22
  Q 533.25 369.54 515.75 392.98
  C 507.41 404.15 501.61 420.39 507.72 433.45
  C 514.98 448.94 533.67 448.33 547.52 443.08"
/>
<path stroke="#ffc47f" vector-effect="non-scaling-stroke" d="
  M 470.02 508.60
  C 483.01 506.71 497.25 485.65 494.35 473.06
  C 492.46 464.87 484.14 463.07 476.99 465.53
  C 465.50 469.48 457.73 481.31 456.18 492.84
  C 455.01 501.59 461.07 509.90 470.02 508.60"
/>
<path stroke="#ac7e4d" vector-effect="non-scaling-stroke" d="
  M 657.97 775.09
  A 44.17 44.17 0.0 0 0 613.80 730.92
  A 44.17 44.17 0.0 0 0 569.63 775.09
  A 44.17 44.17 0.0 0 0 613.80 819.26
  A 44.17 44.17 0.0 0 0 657.97 775.09"
/>
<path stroke="#ac7e4d" vector-effect="non-scaling-stroke" d="
  M 880.20 775.09
  A 44.17 44.17 0.0 0 0 836.03 730.92
  A 44.17 44.17 0.0 0 0 791.86 775.09
  A 44.17 44.17 0.0 0 0 836.03 819.26
  A 44.17 44.17 0.0 0 0 880.20 775.09"
/>
<path stroke="#ac7e4d" vector-effect="non-scaling-stroke" d="
  M 682.71 864.82
  Q 724.93 888.42 767.15 864.77
  A 1.00 0.99 60.0 0 0 767.52 863.38
  L 758.36 848.35
  A 0.99 0.99 0.0 0 0 757.02 848.00
  Q 724.98 866.12 692.75 848.05
  A 1.01 1.01 0.0 0 0 691.40 848.41
  L 682.34 863.43
  A 1.01 1.00 30.3 0 0 682.71 864.82"
/>
<path stroke="#ffc47f" vector-effect="non-scaling-stroke" d="
  M 437.09 1035.69
  A 16.70 16.70 0.0 0 0 420.39 1018.99
  L 299.61 1018.99
  A 16.70 16.70 0.0 0 0 282.91 1035.69
  L 282.91 1036.49
  A 16.70 16.70 0.0 0 0 299.61 1053.19
  L 420.39 1053.19
  A 16.70 16.70 0.0 0 0 437.09 1036.49
  L 437.09 1035.69"
/>
<path stroke="#ffc47f" vector-effect="non-scaling-stroke" d="
  M 509.30 1053.04
  C 531.45 1052.47 531.65 1019.09 507.24 1019.02
  Q 496.93 1018.99 486.63 1019.01
  Q 476.97 1019.02 473.19 1020.60
  C 465.45 1023.85 460.72 1033.60 464.05 1041.72
  Q 468.76 1053.21 481.49 1053.30
  Q 495.42 1053.40 509.30 1053.04"
/>
<path stroke="#aca098" vector-effect="non-scaling-stroke" d="
  M 620.85 760.44
  A 14.51 14.51 0.0 0 0 606.34 745.93
  A 14.51 14.51 0.0 0 0 591.83 760.44
  A 14.51 14.51 0.0 0 0 606.34 774.95
  A 14.51 14.51 0.0 0 0 620.85 760.44"
/>
<path stroke="#aca098" vector-effect="non-scaling-stroke" d="
  M 843.05 760.45
  A 14.50 14.50 0.0 0 0 828.55 745.95
  A 14.50 14.50 0.0 0 0 814.05 760.45
  A 14.50 14.50 0.0 0 0 828.55 774.95
  A 14.50 14.50 0.0 0 0 843.05 760.45"
/>
<path stroke="#fcb767" vector-effect="non-scaling-stroke" d="
  M 76.46 1033.00
  C 76.11 1031.96 76.58 1029.85 75.85 1029.42
  A 0.81 0.80 -74.0 0 1 75.46 1028.71
  L 75.89 1012.65
  A 0.21 0.21 0.0 0 0 75.75 1012.45
  Q 75.42 1012.32 75.40 1012.80
  Q 75.39 1013.07 75.28 1012.75
  Q 74.83 1011.38 75.20 1010.00
  Q 75.33 1009.52 75.06 1009.81
  L 74.94 1009.94
  Q 74.62 1010.28 74.64 1009.50
  C 74.76 1004.06 69.63 1008.49 66.82 1006.24
  Q 65.13 1004.89 63.76 1006.51
  Q 61.63 1009.03 60.23 1006.15
  A 1.02 1.00 88.9 0 0 59.74 1005.67
  C 57.34 1004.60 54.77 1008.21 54.09 1005.64
  A 1.00 1.00 0.0 0 0 52.63 1005.03
  Q 48.98 1007.10 44.84 1007.04
  A 0.98 0.97 68.2 0 1 44.13 1006.73
  L 43.09 1005.62
  A 1.00 1.00 0.0 0 0 41.84 1005.46
  Q 39.70 1006.77 38.12 1005.11
  A 1.02 1.02 0.0 0 0 37.16 1004.83
  L 34.46 1005.48
  A 1.01 1.00 -22.8 0 1 33.39 1005.05
  Q 32.15 1003.17 30.81 1004.91
  A 1.01 1.01 0.0 0 1 29.92 1005.30
  Q 27.18 1005.04 25.25 1003.38
  A 0.99 0.98 42.6 0 0 23.89 1003.43
  Q 23.45 1003.88 22.93 1004.24
  C 21.54 1005.22 19.74 1004.62 18.20 1004.31
  A 1.01 1.00 -68.5 0 0 17.14 1004.78
  L 16.72 1005.49
  A 1.01 1.00 -61.7 0 1 15.44 1005.88
  L 11.97 1004.25
  A 1.02 1.01 38.7 0 0 10.94 1004.36
  L 9.64 1005.34
  A 1.00 1.00 0.0 0 1 8.34 1005.25
  Q 6.97 1003.92 5.21 1004.54
  A 1.01 1.00 58.0 0 1 4.16 1004.29
  L 3.89 1004.01
  A 0.64 0.63 -44.7 0 0 2.98 1004.01
  Q 1.51 1005.52 1.51 1007.00
  Q 1.51 1025.35 1.47 1043.68
  Q 1.47 1044.83 0.29 1045.00"
/>
<path stroke="#fcb767" vector-effect="non-scaling-stroke" d="
  M 1447.21 1070.50
  L 1446.85 1070.06
  A 1.01 1.00 52.7 0 0 1445.51 1069.87
  Q 1444.28 1070.72 1443.40 1069.25
  A 0.98 0.98 0.0 0 0 1442.12 1068.86
  L 1439.02 1070.33
  A 1.01 1.00 55.9 0 1 1437.86 1070.10
  Q 1436.96 1069.13 1436.68 1067.77
  Q 1436.30 1065.98 1435.00 1067.26
  L 1431.53 1070.64
  A 1.01 0.98 -57.6 0 1 1430.52 1070.88
  L 1426.16 1069.44
  A 0.98 0.98 0.0 0 0 1425.18 1069.64
  Q 1423.14 1071.48 1422.24 1068.21
  Q 1421.66 1066.07 1419.74 1066.95
  L 1417.89 1067.80
  A 1.01 1.00 -28.8 0 1 1416.64 1067.44
  C 1415.11 1065.14 1413.78 1068.79 1412.15 1069.05
  A 1.04 1.02 15.7 0 0 1411.55 1069.38
  Q 1410.17 1070.97 1409.12 1069.18
  A 1.01 1.01 0.0 0 0 1408.23 1068.68
  Q 1405.88 1068.74 1403.91 1067.65
  A 1.00 1.00 0.0 0 0 1402.63 1067.92
  L 1402.39 1068.24
  A 1.02 1.01 24.0 0 1 1401.39 1068.62
  Q 1398.98 1068.13 1396.84 1069.21
  A 1.02 1.01 -36.2 0 1 1395.67 1069.03
  Q 1394.22 1067.57 1392.36 1068.69
  A 1.02 1.01 45.3 0 1 1391.30 1068.68
  Q 1390.47 1068.15 1389.48 1068.25
  A 1.00 0.99 -12.6 0 1 1388.44 1067.60
  L 1388.16 1066.85
  A 1.01 1.00 83.6 0 0 1387.35 1066.20
  C 1385.60 1065.97 1385.54 1068.19 1383.91 1067.74
  A 1.00 0.99 20.5 0 0 1382.76 1068.26
  L 1382.60 1068.56
  Q 1381.97 1069.83 1381.21 1068.63
  Q 1379.96 1066.66 1377.40 1068.19
  A 1.03 0.99 -48.5 0 1 1376.50 1068.26
  Q 1372.18 1066.44 1374.15 1064.90
  Q 1375.72 1063.67 1373.79 1063.15
  Q 1373.18 1062.98 1372.48 1063.10
  A 0.98 0.98 0.0 0 1 1371.44 1062.60
  Q 1370.82 1061.50 1370.54 1063.75"
/>
</g>
<path fill="#efa761" d="
  M 403.31 0.01
  L 1044.81 0.00
  C 1108.05 1.41 1170.27 3.35 1231.80 20.71
  Q 1245.32 24.53 1258.23 30.06
  C 1330.99 61.25 1388.64 119.13 1419.09 192.45
  Q 1422.76 201.30 1425.77 211.28
  C 1445.34 276.15 1447.10 343.88 1448.00 411.06
  L 1448.00 898.31
  L 1447.81 869.52
  A 0.81 0.81 0.0 0 0 1447.16 868.74
  Q 1446.12 868.54 1446.50 870.25
  Q 1446.72 871.23 1446.49 875.14
  Q 1446.41 876.64 1445.21 875.73
  Q 1444.73 875.36 1444.11 875.19
  A 0.64 0.64 0.0 0 0 1443.29 875.80
  Q 1443.29 876.27 1442.82 876.31
  A 1.07 0.15 -6.8 0 1 1441.94 876.29
  Q 1440.45 875.32 1438.97 876.15
  A 1.00 1.00 0.0 0 1 1438.14 876.21
  L 1433.87 874.64
  A 1.00 0.98 81.0 0 1 1433.41 874.30
  Q 1431.79 872.12 1430.20 874.32
  A 1.00 0.99 28.5 0 1 1429.02 874.66
  L 1427.82 874.18
  A 0.98 0.98 0.0 0 0 1426.77 874.38
  C 1425.29 875.76 1422.70 878.21 1421.32 875.04
  A 1.01 1.00 86.1 0 0 1420.68 874.48
  Q 1417.93 873.67 1415.06 874.10
  A 1.02 0.94 -33.3 0 1 1414.45 874.00
  Q 1412.60 873.03 1410.83 873.93
  A 0.97 0.96 -54.7 0 1 1410.26 874.03
  L 1406.77 873.61
  A 0.96 0.96 0.0 0 0 1406.12 873.75
  Q 1405.11 874.37 1403.99 873.73
  A 1.05 1.01 49.4 0 0 1403.17 873.65
  Q 1400.75 874.49 1398.43 873.47
  A 0.95 0.93 51.4 0 0 1397.85 873.40
  Q 1395.32 873.88 1392.96 872.80
  A 1.00 0.99 -46.6 0 0 1392.05 872.83
  Q 1389.67 874.17 1387.80 872.56
  A 1.02 1.01 51.8 0 0 1386.70 872.42
  Q 1382.17 874.67 1378.52 871.43
  A 1.01 1.00 43.9 0 0 1377.17 871.45
  Q 1374.23 874.21 1374.48 870.25
  Q 1374.50 870.04 1374.43 869.85
  Q 1373.32 866.73 1373.78 863.27
  Q 1373.83 862.89 1373.49 863.05
  L 1373.23 863.17
  A 0.33 0.33 0.0 0 1 1372.77 862.86
  Q 1372.90 852.90 1372.04 843.00
  Q 1372.01 646.59 1372.13 450.19
  Q 1372.17 395.21 1368.15 349.82
  Q 1364.48 308.34 1353.15 268.28
  Q 1349.97 257.04 1346.73 249.30
  Q 1311.55 165.52 1233.67 118.87
  C 1194.50 95.40 1152.95 85.64 1107.25 80.77
  C 1074.15 77.24 1038.43 76.02 1001.50 76.01
  Q 719.91 75.96 438.31 76.19
  C 382.27 76.24 325.66 79.06 271.35 93.91
  Q 261.15 96.71 252.37 100.19
  C 184.77 127.05 130.78 179.82 102.36 246.91
  Q 97.90 257.45 95.33 266.32
  C 78.97 322.70 76.22 381.09 76.16 441.56
  Q 75.97 617.03 75.99 792.50
  L 74.47 821.56
  A 0.48 0.43 68.8 0 1 74.37 821.82
  Q 74.20 822.01 74.09 821.90
  C 74.06 821.87 74.32 816.83 74.32 816.34
  C 74.34 813.15 72.63 810.72 69.16 812.11
  A 0.99 0.96 -42.7 0 1 68.36 812.09
  Q 66.97 811.43 65.65 811.88
  Q 63.28 812.68 62.52 810.72
  A 1.01 1.01 0.0 0 0 61.40 810.09
  C 59.01 810.55 57.25 812.17 55.01 809.98
  Q 53.89 808.89 50.93 810.61
  Q 49.49 811.45 48.02 810.61
  A 0.98 0.97 53.3 0 0 47.30 810.50
  C 43.00 811.46 41.66 813.12 37.23 810.57
  A 1.00 1.00 0.0 0 0 36.29 810.53
  Q 34.19 811.55 32.22 810.33
  A 0.98 0.98 0.0 0 0 31.30 810.26
  Q 29.19 811.19 26.78 810.14
  A 1.01 0.99 -48.1 0 0 25.86 810.20
  Q 24.19 811.21 22.72 810.66
  Q 22.55 810.60 22.37 810.59
  L 17.69 810.55
  A 0.64 0.63 19.6 0 0 17.20 810.78
  L 17.03 810.98
  A 0.66 0.65 -52.7 0 1 16.17 811.10
  Q 12.91 808.86 9.05 810.07
  A 1.02 1.00 56.8 0 1 8.08 809.86
  Q 5.95 807.96 3.45 809.13
  A 1.00 1.00 0.0 0 1 2.04 808.36
  L 1.90 807.42
  Q 1.75 806.38 1.39 807.36
  Q 1.29 807.66 1.28 808.00
  Q 1.17 825.38 0.93 808.01
  Q 0.93 807.83 0.90 808.01
  L 0.63 810.20
  Q 0.56 810.73 0.57 810.20
  Q 0.62 807.49 0.30 804.81
  Q 0.25 804.37 0.24 804.81
  L 0.00 836.44
  L 0.00 419.19
  C 0.35 406.71 0.49 394.14 0.65 381.68
  C 1.34 326.79 5.46 271.81 19.98 218.64
  Q 22.75 208.49 26.14 199.63
  C 56.15 121.40 117.48 59.19 195.17 27.84
  Q 204.02 24.27 214.07 21.35
  C 275.74 3.42 339.58 1.08 403.31 0.01
  Z"
/>
<path fill="#272727" d="
  M 1372.04 843.00
  Q 1372.01 925.84 1371.94 1008.69
  Q 1371.92 1031.38 1370.54 1063.75
  C 1368.66 1103.97 1364.13 1141.51 1353.46 1178.99
  Q 1350.40 1189.74 1346.86 1198.34
  C 1318.42 1267.39 1262.86 1322.52 1192.69 1348.95
  Q 1184.01 1352.22 1173.63 1354.97
  C 1112.22 1371.29 1046.43 1372.18 982.74 1372.22
  C 798.68 1372.33 614.61 1372.49 430.56 1371.76
  C 379.26 1371.56 324.89 1368.31 274.20 1354.87
  C 201.18 1335.51 139.21 1279.26 107.13 1211.96
  Q 100.29 1197.61 96.91 1187.03
  C 81.55 1138.91 77.37 1084.64 76.46 1033.00
  C 75.99 952.83 76.00 872.67 75.99 792.50
  Q 75.97 617.03 76.16 441.56
  C 76.22 381.09 78.97 322.70 95.33 266.32
  Q 97.90 257.45 102.36 246.91
  C 130.78 179.82 184.77 127.05 252.37 100.19
  Q 261.15 96.71 271.35 93.91
  C 325.66 79.06 382.27 76.24 438.31 76.19
  Q 719.91 75.96 1001.50 76.01
  C 1038.43 76.02 1074.15 77.24 1107.25 80.77
  C 1152.95 85.64 1194.50 95.40 1233.67 118.87
  Q 1311.55 165.52 1346.73 249.30
  Q 1349.97 257.04 1353.15 268.28
  Q 1364.48 308.34 1368.15 349.82
  Q 1372.17 395.21 1372.13 450.19
  Q 1372.01 646.59 1372.04 843.00
  Z
  M 663.54 289.75
  Q 662.38 290.50 661.43 290.68
  C 517.86 318.34 409.15 432.41 386.78 576.51
  C 383.98 594.55 383.36 612.85 382.69 631.07
  Q 378.50 743.26 374.12 855.45
  C 371.88 912.85 353.25 962.10 314.91 1005.74
  A 1.01 0.99 22.1 0 1 314.10 1006.07
  C 304.82 1005.56 294.62 1006.12 285.84 1009.36
  C 264.80 1017.11 248.92 1034.90 245.09 1057.35
  C 239.62 1089.44 261.44 1120.03 292.92 1127.24
  C 299.38 1128.72 308.86 1129.01 314.50 1129.01
  Q 460.80 1128.98 607.11 1129.00
  Q 607.24 1129.00 607.83 1128.82
  Q 608.03 1128.75 608.25 1128.79
  Q 617.23 1156.44 637.50 1176.76
  C 703.05 1242.49 811.52 1216.25 841.75 1129.04
  L 1057.50 1128.96
  Q 1096.59 1129.05 1135.69 1128.98
  Q 1149.36 1128.95 1155.60 1127.71
  C 1180.24 1122.82 1199.90 1103.17 1204.63 1078.51
  C 1210.25 1049.19 1193.39 1020.92 1166.43 1010.07
  C 1156.81 1006.20 1145.66 1005.11 1135.16 1005.21
  A 1.02 1.00 -20.3 0 1 1134.40 1004.87
  Q 1083.92 947.33 1076.76 871.71
  Q 1076.11 864.89 1075.71 851.75
  C 1074.55 813.88 1072.45 776.06 1071.26 738.20
  Q 1069.25 674.49 1066.39 610.80
  C 1062.81 531.13 1030.86 454.20 977.05 395.85
  Q 908.68 321.73 810.71 295.44
  C 803.42 293.49 794.82 291.84 787.06 290.03
  A 1.00 0.99 -81.5 0 1 786.29 288.99
  Q 788.40 257.72 768.80 236.98
  C 757.80 225.34 741.42 218.45 725.49 218.21
  C 699.50 217.82 676.42 234.69 667.37 258.46
  C 663.62 268.32 662.98 279.13 663.54 289.75
  Z"
/>
<path fill="#efa761" d="
  M 1057.50 1128.96
  Q 1056.71 1128.91 1055.98 1128.70
  Q 1053.45 1127.95 1055.84 1126.83
  Q 1057.33 1126.14 1058.89 1125.69
  Q 1062.47 1124.65 1063.38 1124.26
  C 1108.42 1104.90 1115.50 1045.03 1075.08 1016.66
  C 1069.39 1012.66 1065.97 1011.24 1058.59 1011.24
  Q 969.79 1011.26 880.98 1011.25
  C 871.02 1011.25 871.50 1000.27 879.31 1000.26
  Q 958.25 1000.24 1037.21 1000.25
  Q 1039.13 1000.25 1038.03 998.68
  Q 1028.62 985.15 1021.57 969.87
  C 1004.96 933.94 996.91 896.73 995.69 857.26
  Q 992.93 767.35 990.17 677.44
  Q 988.96 638.25 988.13 599.05
  C 986.88 540.12 976.20 481.87 950.02 428.94
  C 919.15 366.52 865.54 320.66 799.99 298.00
  C 782.51 291.95 761.05 286.41 741.77 285.25
  Q 703.04 282.91 664.75 290.00
  Q 664.36 290.07 663.54 289.75
  C 662.98 279.13 663.62 268.32 667.37 258.46
  C 676.42 234.69 699.50 217.82 725.49 218.21
  C 741.42 218.45 757.80 225.34 768.80 236.98
  Q 788.40 257.72 786.29 288.99
  A 1.00 0.99 -81.5 0 0 787.06 290.03
  C 794.82 291.84 803.42 293.49 810.71 295.44
  Q 908.68 321.73 977.05 395.85
  C 1030.86 454.20 1062.81 531.13 1066.39 610.80
  Q 1069.25 674.49 1071.26 738.20
  C 1072.45 776.06 1074.55 813.88 1075.71 851.75
  Q 1076.11 864.89 1076.76 871.71
  Q 1083.92 947.33 1134.40 1004.87
  A 1.02 1.00 -20.3 0 0 1135.16 1005.21
  C 1145.66 1005.11 1156.81 1006.20 1166.43 1010.07
  C 1193.39 1020.92 1210.25 1049.19 1204.63 1078.51
  C 1199.90 1103.17 1180.24 1122.82 1155.60 1127.71
  Q 1149.36 1128.95 1135.69 1128.98
  Q 1096.59 1129.05 1057.50 1128.96
  Z"
/>
<path fill="#ffbb68" d="
  M 1057.50 1128.96
  L 841.75 1129.04
  C 839.50 1128.13 837.52 1128.75 835.67 1128.75
  Q 721.96 1128.72 608.25 1128.79
  Q 608.03 1128.75 607.83 1128.82
  Q 607.24 1129.00 607.11 1129.00
  Q 460.80 1128.98 314.50 1129.01
  C 308.86 1129.01 299.38 1128.72 292.92 1127.24
  C 261.44 1120.03 239.62 1089.44 245.09 1057.35
  C 248.92 1034.90 264.80 1017.11 285.84 1009.36
  C 294.62 1006.12 304.82 1005.56 314.10 1006.07
  A 1.01 0.99 22.1 0 0 314.91 1005.74
  C 353.25 962.10 371.88 912.85 374.12 855.45
  Q 378.50 743.26 382.69 631.07
  C 383.36 612.85 383.98 594.55 386.78 576.51
  C 409.15 432.41 517.86 318.34 661.43 290.68
  Q 662.38 290.50 663.54 289.75
  Q 664.36 290.07 664.75 290.00
  Q 703.04 282.91 741.77 285.25
  C 761.05 286.41 782.51 291.95 799.99 298.00
  C 865.54 320.66 919.15 366.52 950.02 428.94
  C 976.20 481.87 986.88 540.12 988.13 599.05
  Q 988.96 638.25 990.17 677.44
  Q 992.93 767.35 995.69 857.26
  C 996.91 896.73 1004.96 933.94 1021.57 969.87
  Q 1028.62 985.15 1038.03 998.68
  Q 1039.13 1000.25 1037.21 1000.25
  Q 958.25 1000.24 879.31 1000.26
  C 871.50 1000.27 871.02 1011.25 880.98 1011.25
  Q 969.79 1011.26 1058.59 1011.24
  C 1065.97 1011.24 1069.39 1012.66 1075.08 1016.66
  C 1115.50 1045.03 1108.42 1104.90 1063.38 1124.26
  Q 1062.47 1124.65 1058.89 1125.69
  Q 1057.33 1126.14 1055.84 1126.83
  Q 1053.45 1127.95 1055.98 1128.70
  Q 1056.71 1128.91 1057.50 1128.96
  Z
  M 547.52 443.08
  C 568.27 435.21 627.04 401.62 616.94 373.11
  C 609.56 352.28 579.55 353.45 562.95 359.22
  Q 533.25 369.54 515.75 392.98
  C 507.41 404.15 501.61 420.39 507.72 433.45
  C 514.98 448.94 533.67 448.33 547.52 443.08
  Z
  M 470.02 508.60
  C 483.01 506.71 497.25 485.65 494.35 473.06
  C 492.46 464.87 484.14 463.07 476.99 465.53
  C 465.50 469.48 457.73 481.31 456.18 492.84
  C 455.01 501.59 461.07 509.90 470.02 508.60
  Z
  M 657.97 775.09
  A 44.17 44.17 0.0 0 0 613.80 730.92
  A 44.17 44.17 0.0 0 0 569.63 775.09
  A 44.17 44.17 0.0 0 0 613.80 819.26
  A 44.17 44.17 0.0 0 0 657.97 775.09
  Z
  M 880.20 775.09
  A 44.17 44.17 0.0 0 0 836.03 730.92
  A 44.17 44.17 0.0 0 0 791.86 775.09
  A 44.17 44.17 0.0 0 0 836.03 819.26
  A 44.17 44.17 0.0 0 0 880.20 775.09
  Z
  M 682.71 864.82
  Q 724.93 888.42 767.15 864.77
  A 1.00 0.99 60.0 0 0 767.52 863.38
  L 758.36 848.35
  A 0.99 0.99 0.0 0 0 757.02 848.00
  Q 724.98 866.12 692.75 848.05
  A 1.01 1.01 0.0 0 0 691.40 848.41
  L 682.34 863.43
  A 1.01 1.00 30.3 0 0 682.71 864.82
  Z
  M 437.09 1035.69
  A 16.70 16.70 0.0 0 0 420.39 1018.99
  L 299.61 1018.99
  A 16.70 16.70 0.0 0 0 282.91 1035.69
  L 282.91 1036.49
  A 16.70 16.70 0.0 0 0 299.61 1053.19
  L 420.39 1053.19
  A 16.70 16.70 0.0 0 0 437.09 1036.49
  L 437.09 1035.69
  Z
  M 509.30 1053.04
  C 531.45 1052.47 531.65 1019.09 507.24 1019.02
  Q 496.93 1018.99 486.63 1019.01
  Q 476.97 1019.02 473.19 1020.60
  C 465.45 1023.85 460.72 1033.60 464.05 1041.72
  Q 468.76 1053.21 481.49 1053.30
  Q 495.42 1053.40 509.30 1053.04
  Z"
/>
<path fill="#ffcd96" d="
  M 616.94 373.11
  C 627.04 401.62 568.27 435.21 547.52 443.08
  C 533.67 448.33 514.98 448.94 507.72 433.45
  C 501.61 420.39 507.41 404.15 515.75 392.98
  Q 533.25 369.54 562.95 359.22
  C 579.55 353.45 609.56 352.28 616.94 373.11
  Z"
/>
<path fill="#ffcd96" d="
  M 494.35 473.06
  C 497.25 485.65 483.01 506.71 470.02 508.60
  C 461.07 509.90 455.01 501.59 456.18 492.84
  C 457.73 481.31 465.50 469.48 476.99 465.53
  C 484.14 463.07 492.46 464.87 494.35 473.06
  Z"
/>
<path fill="#594031" d="
  M 657.97 775.09
  A 44.17 44.17 0.0 0 1 613.80 819.26
  A 44.17 44.17 0.0 0 1 569.63 775.09
  A 44.17 44.17 0.0 0 1 613.80 730.92
  A 44.17 44.17 0.0 0 1 657.97 775.09
  Z
  M 620.85 760.44
  A 14.51 14.51 0.0 0 0 606.34 745.93
  A 14.51 14.51 0.0 0 0 591.83 760.44
  A 14.51 14.51 0.0 0 0 606.34 774.95
  A 14.51 14.51 0.0 0 0 620.85 760.44
  Z"
/>
<path fill="#594031" d="
  M 880.20 775.09
  A 44.17 44.17 0.0 0 1 836.03 819.26
  A 44.17 44.17 0.0 0 1 791.86 775.09
  A 44.17 44.17 0.0 0 1 836.03 730.92
  A 44.17 44.17 0.0 0 1 880.20 775.09
  Z
  M 843.05 760.45
  A 14.50 14.50 0.0 0 0 828.55 745.95
  A 14.50 14.50 0.0 0 0 814.05 760.45
  A 14.50 14.50 0.0 0 0 828.55 774.95
  A 14.50 14.50 0.0 0 0 843.05 760.45
  Z"
/>
<circle fill="#ffffff" cx="606.34" cy="760.44" r="14.51"/>
<circle fill="#ffffff" cx="828.55" cy="760.45" r="14.50"/>
<path fill="#f9b366" d="
  M 75.99 792.50
  C 76.00 872.67 75.99 952.83 76.46 1033.00
  C 76.11 1031.96 76.58 1029.85 75.85 1029.42
  A 0.81 0.80 -74.0 0 1 75.46 1028.71
  L 75.89 1012.65
  A 0.21 0.21 0.0 0 0 75.75 1012.45
  Q 75.42 1012.32 75.40 1012.80
  Q 75.39 1013.07 75.28 1012.75
  Q 74.83 1011.38 75.20 1010.00
  Q 75.33 1009.52 75.06 1009.81
  L 74.94 1009.94
  Q 74.62 1010.28 74.64 1009.50
  C 74.76 1004.06 69.63 1008.49 66.82 1006.24
  Q 65.13 1004.89 63.76 1006.51
  Q 61.63 1009.03 60.23 1006.15
  A 1.02 1.00 88.9 0 0 59.74 1005.67
  C 57.34 1004.60 54.77 1008.21 54.09 1005.64
  A 1.00 1.00 0.0 0 0 52.63 1005.03
  Q 48.98 1007.10 44.84 1007.04
  A 0.98 0.97 68.2 0 1 44.13 1006.73
  L 43.09 1005.62
  A 1.00 1.00 0.0 0 0 41.84 1005.46
  Q 39.70 1006.77 38.12 1005.11
  A 1.02 1.02 0.0 0 0 37.16 1004.83
  L 34.46 1005.48
  A 1.01 1.00 -22.8 0 1 33.39 1005.05
  Q 32.15 1003.17 30.81 1004.91
  A 1.01 1.01 0.0 0 1 29.92 1005.30
  Q 27.18 1005.04 25.25 1003.38
  A 0.99 0.98 42.6 0 0 23.89 1003.43
  Q 23.45 1003.88 22.93 1004.24
  C 21.54 1005.22 19.74 1004.62 18.20 1004.31
  A 1.01 1.00 -68.5 0 0 17.14 1004.78
  L 16.72 1005.49
  A 1.01 1.00 -61.7 0 1 15.44 1005.88
  L 11.97 1004.25
  A 1.02 1.01 38.7 0 0 10.94 1004.36
  L 9.64 1005.34
  A 1.00 1.00 0.0 0 1 8.34 1005.25
  Q 6.97 1003.92 5.21 1004.54
  A 1.01 1.00 58.0 0 1 4.16 1004.29
  L 3.89 1004.01
  A 0.64 0.63 -44.7 0 0 2.98 1004.01
  Q 1.51 1005.52 1.51 1007.00
  Q 1.51 1025.35 1.47 1043.68
  Q 1.47 1044.83 0.29 1045.00
  L 0.00 1044.44
  L 0.00 836.44
  L 0.24 804.81
  Q 0.25 804.37 0.30 804.81
  Q 0.62 807.49 0.57 810.20
  Q 0.56 810.73 0.63 810.20
  L 0.90 808.01
  Q 0.93 807.83 0.93 808.01
  Q 1.17 825.38 1.28 808.00
  Q 1.29 807.66 1.39 807.36
  Q 1.75 806.38 1.90 807.42
  L 2.04 808.36
  A 1.00 1.00 0.0 0 0 3.45 809.13
  Q 5.95 807.96 8.08 809.86
  A 1.02 1.00 56.8 0 0 9.05 810.07
  Q 12.91 808.86 16.17 811.10
  A 0.66 0.65 -52.7 0 0 17.03 810.98
  L 17.20 810.78
  A 0.64 0.63 19.6 0 1 17.69 810.55
  L 22.37 810.59
  Q 22.55 810.60 22.72 810.66
  Q 24.19 811.21 25.86 810.20
  A 1.01 0.99 -48.1 0 1 26.78 810.14
  Q 29.19 811.19 31.30 810.26
  A 0.98 0.98 0.0 0 1 32.22 810.33
  Q 34.19 811.55 36.29 810.53
  A 1.00 1.00 0.0 0 1 37.23 810.57
  C 41.66 813.12 43.00 811.46 47.30 810.50
  A 0.98 0.97 53.3 0 1 48.02 810.61
  Q 49.49 811.45 50.93 810.61
  Q 53.89 808.89 55.01 809.98
  C 57.25 812.17 59.01 810.55 61.40 810.09
  A 1.01 1.01 0.0 0 1 62.52 810.72
  Q 63.28 812.68 65.65 811.88
  Q 66.97 811.43 68.36 812.09
  A 0.99 0.96 -42.7 0 0 69.16 812.11
  C 72.63 810.72 74.34 813.15 74.32 816.34
  C 74.32 816.83 74.06 821.87 74.09 821.90
  Q 74.20 822.01 74.37 821.82
  A 0.48 0.43 68.8 0 0 74.47 821.56
  L 75.99 792.50
  Z"
/>
<path fill="#f9b366" d="
  M 1372.04 843.00
  Q 1372.90 852.90 1372.77 862.86
  A 0.33 0.33 0.0 0 0 1373.23 863.17
  L 1373.49 863.05
  Q 1373.83 862.89 1373.78 863.27
  Q 1373.32 866.73 1374.43 869.85
  Q 1374.50 870.04 1374.48 870.25
  Q 1374.23 874.21 1377.17 871.45
  A 1.01 1.00 43.9 0 1 1378.52 871.43
  Q 1382.17 874.67 1386.70 872.42
  A 1.02 1.01 51.8 0 1 1387.80 872.56
  Q 1389.67 874.17 1392.05 872.83
  A 1.00 0.99 -46.6 0 1 1392.96 872.80
  Q 1395.32 873.88 1397.85 873.40
  A 0.95 0.93 51.4 0 1 1398.43 873.47
  Q 1400.75 874.49 1403.17 873.65
  A 1.05 1.01 49.4 0 1 1403.99 873.73
  Q 1405.11 874.37 1406.12 873.75
  A 0.96 0.96 0.0 0 1 1406.77 873.61
  L 1410.26 874.03
  A 0.97 0.96 -54.7 0 0 1410.83 873.93
  Q 1412.60 873.03 1414.45 874.00
  A 1.02 0.94 -33.3 0 0 1415.06 874.10
  Q 1417.93 873.67 1420.68 874.48
  A 1.01 1.00 86.1 0 1 1421.32 875.04
  C 1422.70 878.21 1425.29 875.76 1426.77 874.38
  A 0.98 0.98 0.0 0 1 1427.82 874.18
  L 1429.02 874.66
  A 1.00 0.99 28.5 0 0 1430.20 874.32
  Q 1431.79 872.12 1433.41 874.30
  A 1.00 0.98 81.0 0 0 1433.87 874.64
  L 1438.14 876.21
  A 1.00 1.00 0.0 0 0 1438.97 876.15
  Q 1440.45 875.32 1441.94 876.29
  A 1.07 0.15 -6.8 0 0 1442.82 876.31
  Q 1443.29 876.27 1443.29 875.80
  A 0.64 0.64 0.0 0 1 1444.11 875.19
  Q 1444.73 875.36 1445.21 875.73
  Q 1446.41 876.64 1446.49 875.14
  Q 1446.72 871.23 1446.50 870.25
  Q 1446.12 868.54 1447.16 868.74
  A 0.81 0.81 0.0 0 1 1447.81 869.52
  L 1448.00 898.31
  L 1448.00 1039.06
  L 1447.21 1070.50
  L 1446.85 1070.06
  A 1.01 1.00 52.7 0 0 1445.51 1069.87
  Q 1444.28 1070.72 1443.40 1069.25
  A 0.98 0.98 0.0 0 0 1442.12 1068.86
  L 1439.02 1070.33
  A 1.01 1.00 55.9 0 1 1437.86 1070.10
  Q 1436.96 1069.13 1436.68 1067.77
  Q 1436.30 1065.98 1435.00 1067.26
  L 1431.53 1070.64
  A 1.01 0.98 -57.6 0 1 1430.52 1070.88
  L 1426.16 1069.44
  A 0.98 0.98 0.0 0 0 1425.18 1069.64
  Q 1423.14 1071.48 1422.24 1068.21
  Q 1421.66 1066.07 1419.74 1066.95
  L 1417.89 1067.80
  A 1.01 1.00 -28.8 0 1 1416.64 1067.44
  C 1415.11 1065.14 1413.78 1068.79 1412.15 1069.05
  A 1.04 1.02 15.7 0 0 1411.55 1069.38
  Q 1410.17 1070.97 1409.12 1069.18
  A 1.01 1.01 0.0 0 0 1408.23 1068.68
  Q 1405.88 1068.74 1403.91 1067.65
  A 1.00 1.00 0.0 0 0 1402.63 1067.92
  L 1402.39 1068.24
  A 1.02 1.01 24.0 0 1 1401.39 1068.62
  Q 1398.98 1068.13 1396.84 1069.21
  A 1.02 1.01 -36.2 0 1 1395.67 1069.03
  Q 1394.22 1067.57 1392.36 1068.69
  A 1.02 1.01 45.3 0 1 1391.30 1068.68
  Q 1390.47 1068.15 1389.48 1068.25
  A 1.00 0.99 -12.6 0 1 1388.44 1067.60
  L 1388.16 1066.85
  A 1.01 1.00 83.6 0 0 1387.35 1066.20
  C 1385.60 1065.97 1385.54 1068.19 1383.91 1067.74
  A 1.00 0.99 20.5 0 0 1382.76 1068.26
  L 1382.60 1068.56
  Q 1381.97 1069.83 1381.21 1068.63
  Q 1379.96 1066.66 1377.40 1068.19
  A 1.03 0.99 -48.5 0 1 1376.50 1068.26
  Q 1372.18 1066.44 1374.15 1064.90
  Q 1375.72 1063.67 1373.79 1063.15
  Q 1373.18 1062.98 1372.48 1063.10
  A 0.98 0.98 0.0 0 1 1371.44 1062.60
  Q 1370.82 1061.50 1370.54 1063.75
  Q 1371.92 1031.38 1371.94 1008.69
  Q 1372.01 925.84 1372.04 843.00
  Z"
/>
<path fill="#594031" d="
  M 682.71 864.82
  A 1.01 1.00 30.3 0 1 682.34 863.43
  L 691.40 848.41
  A 1.01 1.01 0.0 0 1 692.75 848.05
  Q 724.98 866.12 757.02 848.00
  A 0.99 0.99 0.0 0 1 758.36 848.35
  L 767.52 863.38
  A 1.00 0.99 60.0 0 1 767.15 864.77
  Q 724.93 888.42 682.71 864.82
  Z"
/>
<path fill="#ffbb68" d="
  M 76.46 1033.00
  C 77.37 1084.64 81.55 1138.91 96.91 1187.03
  Q 100.29 1197.61 107.13 1211.96
  C 139.21 1279.26 201.18 1335.51 274.20 1354.87
  C 324.89 1368.31 379.26 1371.56 430.56 1371.76
  C 614.61 1372.49 798.68 1372.33 982.74 1372.22
  C 1046.43 1372.18 1112.22 1371.29 1173.63 1354.97
  Q 1184.01 1352.22 1192.69 1348.95
  C 1262.86 1322.52 1318.42 1267.39 1346.86 1198.34
  Q 1350.40 1189.74 1353.46 1178.99
  C 1364.13 1141.51 1368.66 1103.97 1370.54 1063.75
  Q 1370.82 1061.50 1371.44 1062.60
  A 0.98 0.98 0.0 0 0 1372.48 1063.10
  Q 1373.18 1062.98 1373.79 1063.15
  Q 1375.72 1063.67 1374.15 1064.90
  Q 1372.18 1066.44 1376.50 1068.26
  A 1.03 0.99 -48.5 0 0 1377.40 1068.19
  Q 1379.96 1066.66 1381.21 1068.63
  Q 1381.97 1069.83 1382.60 1068.56
  L 1382.76 1068.26
  A 1.00 0.99 20.5 0 1 1383.91 1067.74
  C 1385.54 1068.19 1385.60 1065.97 1387.35 1066.20
  A 1.01 1.00 83.6 0 1 1388.16 1066.85
  L 1388.44 1067.60
  A 1.00 0.99 -12.6 0 0 1389.48 1068.25
  Q 1390.47 1068.15 1391.30 1068.68
  A 1.02 1.01 45.3 0 0 1392.36 1068.69
  Q 1394.22 1067.57 1395.67 1069.03
  A 1.02 1.01 -36.2 0 0 1396.84 1069.21
  Q 1398.98 1068.13 1401.39 1068.62
  A 1.02 1.01 24.0 0 0 1402.39 1068.24
  L 1402.63 1067.92
  A 1.00 1.00 0.0 0 1 1403.91 1067.65
  Q 1405.88 1068.74 1408.23 1068.68
  A 1.01 1.01 0.0 0 1 1409.12 1069.18
  Q 1410.17 1070.97 1411.55 1069.38
  A 1.04 1.02 15.7 0 1 1412.15 1069.05
  C 1413.78 1068.79 1415.11 1065.14 1416.64 1067.44
  A 1.01 1.00 -28.8 0 0 1417.89 1067.80
  L 1419.74 1066.95
  Q 1421.66 1066.07 1422.24 1068.21
  Q 1423.14 1071.48 1425.18 1069.64
  A 0.98 0.98 0.0 0 1 1426.16 1069.44
  L 1430.52 1070.88
  A 1.01 0.98 -57.6 0 0 1431.53 1070.64
  L 1435.00 1067.26
  Q 1436.30 1065.98 1436.68 1067.77
  Q 1436.96 1069.13 1437.86 1070.10
  A 1.01 1.00 55.9 0 0 1439.02 1070.33
  L 1442.12 1068.86
  A 0.98 0.98 0.0 0 1 1443.40 1069.25
  Q 1444.28 1070.72 1445.51 1069.87
  A 1.01 1.00 52.7 0 1 1446.85 1070.06
  L 1447.21 1070.50
  C 1446.53 1124.10 1442.15 1177.81 1427.92 1229.68
  Q 1424.06 1243.74 1418.37 1257.15
  C 1386.54 1332.25 1326.32 1391.30 1250.40 1421.11
  Q 1241.63 1424.55 1231.42 1427.40
  C 1169.92 1444.60 1107.37 1446.78 1043.94 1448.00
  L 388.69 1448.00
  Q 381.95 1447.26 377.25 1447.24
  C 366.75 1447.18 355.11 1446.58 347.11 1446.28
  C 303.50 1444.66 262.59 1439.69 221.81 1428.95
  Q 205.38 1424.63 189.77 1417.96
  C 119.53 1388.00 63.76 1332.97 32.31 1263.44
  Q 25.10 1247.49 20.98 1233.00
  C 3.77 1172.44 0.42 1108.03 0.29 1045.00
  Q 1.47 1044.83 1.47 1043.68
  Q 1.51 1025.35 1.51 1007.00
  Q 1.51 1005.52 2.98 1004.01
  A 0.64 0.63 -44.7 0 1 3.89 1004.01
  L 4.16 1004.29
  A 1.01 1.00 58.0 0 0 5.21 1004.54
  Q 6.97 1003.92 8.34 1005.25
  A 1.00 1.00 0.0 0 0 9.64 1005.34
  L 10.94 1004.36
  A 1.02 1.01 38.7 0 1 11.97 1004.25
  L 15.44 1005.88
  A 1.01 1.00 -61.7 0 0 16.72 1005.49
  L 17.14 1004.78
  A 1.01 1.00 -68.5 0 1 18.20 1004.31
  C 19.74 1004.62 21.54 1005.22 22.93 1004.24
  Q 23.45 1003.88 23.89 1003.43
  A 0.99 0.98 42.6 0 1 25.25 1003.38
  Q 27.18 1005.04 29.92 1005.30
  A 1.01 1.01 0.0 0 0 30.81 1004.91
  Q 32.15 1003.17 33.39 1005.05
  A 1.01 1.00 -22.8 0 0 34.46 1005.48
  L 37.16 1004.83
  A 1.02 1.02 0.0 0 1 38.12 1005.11
  Q 39.70 1006.77 41.84 1005.46
  A 1.00 1.00 0.0 0 1 43.09 1005.62
  L 44.13 1006.73
  A 0.98 0.97 68.2 0 0 44.84 1007.04
  Q 48.98 1007.10 52.63 1005.03
  A 1.00 1.00 0.0 0 1 54.09 1005.64
  C 54.77 1008.21 57.34 1004.60 59.74 1005.67
  A 1.02 1.00 88.9 0 1 60.23 1006.15
  Q 61.63 1009.03 63.76 1006.51
  Q 65.13 1004.89 66.82 1006.24
  C 69.63 1008.49 74.76 1004.06 74.64 1009.50
  Q 74.62 1010.28 74.94 1009.94
  L 75.06 1009.81
  Q 75.33 1009.52 75.20 1010.00
  Q 74.83 1011.38 75.28 1012.75
  Q 75.39 1013.07 75.40 1012.80
  Q 75.42 1012.32 75.75 1012.45
  A 0.21 0.21 0.0 0 1 75.89 1012.65
  L 75.46 1028.71
  A 0.81 0.80 -74.0 0 0 75.85 1029.42
  C 76.58 1029.85 76.11 1031.96 76.46 1033.00
  Z"
/>
<rect fill="#ffcd96" x="282.91" y="1018.99" width="154.18" height="34.20" rx="16.70"/>
<path fill="#ffcd96" d="
  M 507.24 1019.02
  C 531.65 1019.09 531.45 1052.47 509.30 1053.04
  Q 495.42 1053.40 481.49 1053.30
  Q 468.76 1053.21 464.05 1041.72
  C 460.72 1033.60 465.45 1023.85 473.19 1020.60
  Q 476.97 1019.02 486.63 1019.01
  Q 496.93 1018.99 507.24 1019.02
  Z"
/>
<path fill="#efa761" d="
  M 841.75 1129.04
  C 811.52 1216.25 703.05 1242.49 637.50 1176.76
  Q 617.23 1156.44 608.25 1128.79
  Q 721.96 1128.72 835.67 1128.75
  C 837.52 1128.75 839.50 1128.13 841.75 1129.04
  Z"
/>
</svg>
